<svg id="SvgjsSvg1046" xmlns="http://www.w3.org/2000/svg" version="1.1" xmlns:xlink="http://www.w3.org/1999/xlink" xmlns:svgjs="http://svgjs.com/svgjs" width="148" height="28" viewBox="0 0 148 28"><title>Fill 1</title><desc>Created with Avocode.</desc><defs id="SvgjsDefs1047"></defs><path id="SvgjsPath1048" d="M734.48 2062.31C732.76 2062.31 732.26 2063.06 732.26 2064.69V2067.41H736.87L736.41 2071.7999999999997H732.26V2085.1099999999997H726.72V2071.7999999999997H723V2067.41H726.72V2064.77C726.72 2060.34 728.57 2058 733.72 2058C734.83 2058 736.14 2058.07 736.94 2058.18V2062.31 " fill="#fefefe" fill-opacity="1" transform="matrix(1,0,0,1,-723,-2058)"></path><path id="SvgjsPath1049" d="M742.53 2076.86C742.53 2079.5 743.53 2081.2400000000002 746.1 2081.2400000000002C748.37 2081.2400000000002 749.52 2079.6400000000003 749.52 2077.1200000000003V2075.3300000000004C749.52 2072.8 748.37 2071.2000000000003 746.1 2071.2000000000003C743.53 2071.2000000000003 742.53 2072.9500000000003 742.53 2075.59ZM737 2075.67C737 2070.7200000000003 739.42 2067 744.49 2067C747.26 2067 748.94 2068.38 749.75 2070.09V2067.3700000000003H755.05V2085.07H749.75V2082.4C748.98 2084.11 747.26 2085.4500000000003 744.49 2085.4500000000003C739.42 2085.4500000000003 737 2081.7300000000005 737 2076.78Z " fill="#fefefe" fill-opacity="1" transform="matrix(1,0,0,1,-723,-2058)"></path><path id="SvgjsPath1050" d="M766.45 2067C768.6 2067 770.6400000000001 2067.45 771.75 2068.19L770.52 2071.98C769.68 2071.57 768.29 2071.17 766.8299999999999 2071.17C763.8399999999999 2071.17 762.53 2072.84 762.53 2075.7000000000003V2076.7400000000002C762.53 2079.61 763.8399999999999 2081.28 766.8299999999999 2081.28C768.29 2081.28 769.68 2080.8700000000003 770.52 2080.46L771.75 2084.26C770.64 2085 768.6 2085.4500000000003 766.45 2085.4500000000003C759.96 2085.4500000000003 757 2082.0600000000004 757 2076.63V2075.81C757 2070.38 759.96 2067 766.45 2067 " fill="#fefefe" fill-opacity="1" transform="matrix(1,0,0,1,-723,-2058)"></path><path id="SvgjsPath1051" d="M785.21 2074.59V2074.1400000000003C785.21 2072.2100000000005 784.4100000000001 2070.6800000000003 781.99 2070.6800000000003C779.49 2070.6800000000003 778.53 2072.2100000000005 778.53 2074.59ZM773 2075.33C773 2070.31 775.96 2067 781.99 2067C787.67 2067 790.17 2070.35 790.17 2075.26V2078.0800000000004H778.53C778.65 2080.5000000000005 779.76 2081.5800000000004 782.8299999999999 2081.5800000000004C784.91 2081.5800000000004 787.0999999999999 2081.1700000000005 788.7099999999999 2080.5000000000005L789.7099999999999 2084.1800000000003C788.2499999999999 2084.9300000000003 785.2499999999999 2085.4800000000005 782.5999999999999 2085.4800000000005C775.6099999999999 2085.4800000000005 772.9999999999999 2082.1000000000004 772.9999999999999 2076.8900000000003Z " fill="#fefefe" fill-opacity="1" transform="matrix(1,0,0,1,-723,-2058)"></path><path id="SvgjsPath1052" d="M804.68 2075.55C804.68 2073.0600000000004 803.68 2071.2000000000003 801.03 2071.2000000000003C798.76 2071.2000000000003 797.53 2072.7700000000004 797.53 2075.2900000000004V2077.1500000000005C797.53 2079.6800000000007 798.76 2081.2500000000005 801.03 2081.2500000000005C803.68 2081.2500000000005 804.68 2079.3900000000003 804.68 2076.8900000000003ZM810.21 2076.78C810.21 2081.73 807.75 2085.4500000000003 802.6800000000001 2085.4500000000003C799.9100000000001 2085.4500000000003 797.99 2084.11 797.22 2082.4V2085.08H792V2058.48L797.53 2058V2069.83C798.3399999999999 2068.27 800.1 2067 802.68 2067C807.75 2067 810.2099999999999 2070.72 810.2099999999999 2075.67Z " fill="#fefefe" fill-opacity="1" transform="matrix(1,0,0,1,-723,-2058)"></path><path id="SvgjsPath1053" d="M824.68 2075.41C824.68 2073.06 823.68 2071.2 821.0999999999999 2071.2C818.5299999999999 2071.2 817.5299999999999 2073.06 817.5299999999999 2075.41V2077.04C817.5299999999999 2079.38 818.5299999999999 2081.24 821.0999999999999 2081.24C823.68 2081.24 824.68 2079.3799999999997 824.68 2077.04ZM812 2075.78C812 2070.6800000000003 814.99 2067 821.1 2067C827.21 2067 830.21 2070.68 830.21 2075.78V2076.67C830.21 2081.77 827.21 2085.4500000000003 821.1 2085.4500000000003C814.99 2085.4500000000003 812 2081.7700000000004 812 2076.67Z " fill="#fefefe" fill-opacity="1" transform="matrix(1,0,0,1,-723,-2058)"></path><path id="SvgjsPath1054" d="M844.68 2075.41C844.68 2073.06 843.68 2071.2 841.0999999999999 2071.2C838.5299999999999 2071.2 837.5299999999999 2073.06 837.5299999999999 2075.41V2077.04C837.5299999999999 2079.38 838.5299999999999 2081.24 841.0999999999999 2081.24C843.68 2081.24 844.68 2079.3799999999997 844.68 2077.04ZM832 2075.78C832 2070.6800000000003 834.99 2067 841.1 2067C847.21 2067 850.21 2070.68 850.21 2075.78V2076.67C850.21 2081.77 847.21 2085.4500000000003 841.1 2085.4500000000003C834.99 2085.4500000000003 832 2081.7700000000004 832 2076.67Z " fill="#fefefe" fill-opacity="1" transform="matrix(1,0,0,1,-723,-2058)"></path><path id="SvgjsPath1055" d="M858.53 2075.82L863.99 2067.3700000000003H869.86L864.14 2076.11L870.09 2085.08H864.22L858.53 2076.41V2085.08H853V2058.49L858.53 2058 " fill="#fefefe" fill-opacity="1" transform="matrix(1,0,0,1,-723,-2058)"></path></svg>