<svg id="SvgjsSvg1037" xmlns="http://www.w3.org/2000/svg" version="1.1" xmlns:xlink="http://www.w3.org/1999/xlink" xmlns:svgjs="http://svgjs.com/svgjs" width="145" height="39" viewBox="0 0 145 39"><title>Fill 1</title><desc>Created with Avocode.</desc><defs id="SvgjsDefs1038"></defs><path id="SvgjsPath1039" d="M570.63 2065V2074.75H561V2077.47H570.63V2087.4399999999996H573.57V2077.47H583.3100000000001V2074.75H573.57V2065Z " fill="#ffffff" fill-opacity="1" transform="matrix(1,0,0,1,-439,-2057)"></path><path id="SvgjsPath1040" d="M467.8 2070.57H454.13V2074.63H463.82C463.34 2080.32 458.61 2082.75 454.15 2082.75C448.42999999999995 2082.75 443.45 2078.25 443.45 2071.94C443.45 2065.8 448.2 2061.07 454.15999999999997 2061.07C458.76 2061.07 461.46999999999997 2064 461.46999999999997 2064L464.30999999999995 2061.06C464.30999999999995 2061.06 460.65999999999997 2057 454.00999999999993 2057C445.54999999999995 2057 438.99999999999994 2064.15 438.99999999999994 2071.87C438.99999999999994 2079.44 445.15999999999997 2086.8199999999997 454.22999999999996 2086.8199999999997C462.2 2086.8199999999997 468.03999999999996 2081.35 468.03999999999996 2073.2599999999998C468.03999999999996 2071.56 467.79999999999995 2070.5699999999997 467.79999999999995 2070.5699999999997Z " fill="#4885ed" fill-opacity="1" transform="matrix(1,0,0,1,-439,-2057)"></path><path id="SvgjsPath1041" d="M473.2 2077.56C473.2 2080.96 475.61 2083.41 478.67 2083.41C481.45 2083.41 484.05 2081.1099999999997 484.05 2077.5899999999997C484.05 2073.9999999999995 481.44 2071.7599999999998 478.68 2071.7599999999998C475.58 2071.7599999999998 473.2 2074.24 473.2 2077.56ZM478.69 2087.17C472.9 2087.17 469 2082.7000000000003 469 2077.51C469 2072.3900000000003 473.02 2068 478.63 2068C483.24 2068 488.24 2071.27 488.24 2077.62C488.24 2083.16 483.94 2087.17 478.69 2087.17Z " fill="#db3236" fill-opacity="1" transform="matrix(1,0,0,1,-439,-2057)"></path><path id="SvgjsPath1042" d="M494.2 2077.56C494.2 2080.96 496.61 2083.41 499.67 2083.41C502.45 2083.41 505.05 2081.1099999999997 505.05 2077.5899999999997C505.05 2073.9999999999995 502.44 2071.7599999999998 499.68 2071.7599999999998C496.58 2071.7599999999998 494.2 2074.24 494.2 2077.56ZM499.69 2087.17C493.9 2087.17 490 2082.7000000000003 490 2077.51C490 2072.3900000000003 494.02 2068 499.63 2068C504.24 2068 509.24 2071.27 509.24 2077.62C509.24 2083.16 504.94 2087.17 499.69 2087.17Z " fill="#f4c20d" fill-opacity="1" transform="matrix(1,0,0,1,-439,-2057)"></path><path id="SvgjsPath1043" d="M520.57 2071.76C517.86 2071.76 515.21 2073.9500000000003 515.21 2077.63C515.21 2081.17 517.77 2083.4 520.51 2083.4C523.1 2083.4 525.68 2081.34 525.68 2077.6C525.68 2073.91 523.0899999999999 2071.7599999999998 520.5699999999999 2071.7599999999998ZM525.36 2070.2V2068.58H529.37V2085.7999999999997C529.37 2092.56 525.47 2095.7899999999995 520.35 2095.7899999999995C515.6700000000001 2095.7899999999995 513.0500000000001 2092.9099999999994 511.74 2090.1499999999996L515.42 2088.6099999999997C515.93 2089.8399999999997 517.4 2092.0199999999995 520.3199999999999 2092.0199999999995C523.3499999999999 2092.0199999999995 525.3599999999999 2090.0399999999995 525.3599999999999 2086.7299999999996V2084.8399999999997C524.2899999999998 2086.0899999999997 522.8299999999999 2087.1699999999996 520.1099999999999 2087.1699999999996C515.6899999999999 2087.1699999999996 510.9999999999999 2083.3399999999997 510.9999999999999 2077.5799999999995C510.9999999999999 2072.5099999999993 515.0499999999998 2067.9999999999995 520.1899999999999 2067.9999999999995C522.43 2067.9999999999995 524.1199999999999 2068.8699999999994 525.3599999999999 2070.1999999999994Z " fill="#4885ed" fill-opacity="1" transform="matrix(1,0,0,1,-439,-2057)"></path><path id="SvgjsPath1044" d="M551.64 2073.73C551.11 2072.62 549.85 2071.69 548.1 2071.69C545.33 2071.69 542.7 2074.54 543.07 2077.32ZM555.9 2073.62L556.56 2075.18L543.7199999999999 2080.5099999999998C544.4899999999999 2081.9399999999996 545.7299999999999 2083.4199999999996 548.42 2083.4199999999996C550.8199999999999 2083.4199999999996 552.25 2082.1099999999997 553.11 2080.7799999999997L556.42 2082.9799999999996C554.9399999999999 2084.9699999999993 552.4499999999999 2087.1899999999996 548.4 2087.1899999999996C543.54 2087.1899999999996 539 2083.6099999999997 539 2077.5699999999997C539 2071.87 543.08 2067.9999999999995 547.93 2067.9999999999995C551.76 2067.9999999999995 554.66 2070.5599999999995 555.9 2073.6199999999994Z " fill="#db3236" fill-opacity="1" transform="matrix(1,0,0,1,-439,-2057)"></path><path id="SvgjsPath1045" d="M532 2086.25H536.22V2058H532Z " fill="#3cba54" fill-opacity="1" transform="matrix(1,0,0,1,-439,-2057)"></path></svg>