<svg id="SvgjsSvg1016" xmlns="http://www.w3.org/2000/svg" version="1.1" xmlns:xlink="http://www.w3.org/1999/xlink" xmlns:svgjs="http://svgjs.com/svgjs" width="60" height="59" viewBox="0 0 60 59"><title>Page 1</title><desc>Created with Avocode.</desc><defs id="SvgjsDefs1017"></defs><path id="SvgjsPath1018" d="M50 614V672.23H110V641.0500000000001H82.09V614.0000000000001ZM68.59 618.72H77.21000000000001V626.82H68.59ZM54.87 618.72H63.5V626.82H54.87ZM68.59 632.24H77.21000000000001V640.34H68.59ZM54.87 632.24H63.5V640.34H54.87ZM96.61 645.77H105.24V653.87H96.61ZM82.9 645.77H91.53V653.87H82.9ZM68.59 645.77H77.21000000000001V653.87H68.59ZM54.87 645.77H63.5V653.87H54.87ZM96.61 659.3H105.24V667.4H96.61ZM82.9 659.3H91.53V667.4H82.9ZM68.59 659.3H77.21000000000001V667.4H68.59ZM54.87 659.3H63.5V667.4H54.87Z " fill="#ffffff" fill-opacity="1" transform="matrix(1,0,0,1,-50,-614)"></path></svg>