<svg id="SvgjsSvg1019" xmlns="http://www.w3.org/2000/svg" version="1.1" xmlns:xlink="http://www.w3.org/1999/xlink" xmlns:svgjs="http://svgjs.com/svgjs" width="51" height="76" viewBox="0 0 51 76"><title>Fill 1</title><desc>Created with Avocode.</desc><defs id="SvgjsDefs1020"></defs><path id="SvgjsPath1021" d="M593.43 605.35C601.4599999999999 605.35 607.9899999999999 611.86 607.9899999999999 619.9C607.9899999999999 627.9399999999999 601.4599999999999 634.4599999999999 593.43 634.4599999999999C585.39 634.4599999999999 578.88 627.9399999999999 578.88 619.9C578.88 611.86 585.39 605.35 593.43 605.35ZM593.43 596C579.39 596 568 607.39 568 621.43C568 641.54 593.43 671.31 593.43 671.31C593.43 671.31 618.8499999999999 641.43 618.8499999999999 621.43C618.8499999999999 607.39 607.4699999999999 596 593.43 596Z " fill="#ffffff" fill-opacity="1" transform="matrix(1,0,0,1,-568,-596)"></path><path id="SvgjsPath1022" d="M599.33 620.16C599.33 623.5699999999999 596.57 626.3399999999999 593.1600000000001 626.3399999999999C589.7500000000001 626.3399999999999 587.0000000000001 623.5699999999999 587.0000000000001 620.16C587.0000000000001 616.76 589.7500000000001 614 593.1600000000001 614C596.57 614 599.33 616.76 599.33 620.16 " fill="#ffffff" fill-opacity="1" transform="matrix(1,0,0,1,-568,-596)"></path></svg>