<svg id="SvgjsSvg1000" xmlns="http://www.w3.org/2000/svg" version="1.1" xmlns:xlink="http://www.w3.org/1999/xlink" xmlns:svgjs="http://svgjs.com/svgjs" width="60" height="78" viewBox="0 0 60 78"><title>icon</title><desc>Created with Avocode.</desc><defs id="SvgjsDefs1001"></defs><path id="SvgjsPath1007" d="M102.42 320.9C100.47 333.84999999999997 91.45 333.98999999999995 91.45 333.98999999999995C97.36 324.3299999999999 94.92 312.91999999999996 94.8 312.68999999999994C93.38 304.72999999999996 88.17 295.99999999999994 88.17 295.99999999999994C87.10000000000001 305.3399999999999 71.64 312.53999999999996 64.82 323.63999999999993C64.82 323.63999999999993 58.849999999999994 331.9099999999999 58.89999999999999 345.79999999999995C58.89999999999999 345.79999999999995 53.90999999999999 339.94999999999993 57.57999999999999 326.4C57.57999999999999 326.4 52.29999999999999 332.64 50.68999999999999 339.03C50.14999999999999 341.19 49.99999999999999 342.73999999999995 49.99999999999999 344.19C49.99999999999999 358.42 59.919999999999995 370.3 73.21 373.38C67.22999999999999 360.74 82.28 349.37 82.28 349.37C82.28 349.37 81.66 354.88 86.6 360.04C86.6 360.04 93.41999999999999 366.02000000000004 92.25 371.55C102.7 366.87 110 356.39 110 344.19C110 335.68 107.63 329.09 102.42 320.9 " fill="#ffffff" fill-opacity="1" transform="matrix(1,0,0,1,-50,-296)"></path></svg>