<svg id="SvgjsSvg1008" xmlns="http://www.w3.org/2000/svg" version="1.1" xmlns:xlink="http://www.w3.org/1999/xlink" xmlns:svgjs="http://svgjs.com/svgjs" width="52" height="77" viewBox="0 0 52 77"><title>Fill 1</title><desc>Created with Avocode.</desc><defs id="SvgjsDefs1009"></defs><path id="SvgjsPath1010" d="M619.67 332.09C619.67 336.7 615.93 340.44 611.3299999999999 340.44C606.7299999999999 340.44 602.9999999999999 336.7 602.9999999999999 332.09C602.9999999999999 327.47999999999996 611.3299999999999 313 611.3299999999999 313C611.3299999999999 313 619.67 327.48 619.67 332.09 " fill="#ffffff" fill-opacity="1" transform="matrix(1,0,0,1,-568,-296)"></path><path id="SvgjsPath1011" d="M619.67 364.09C619.67 368.7 615.93 372.44 611.3299999999999 372.44C606.7299999999999 372.44 602.9999999999999 368.7 602.9999999999999 364.09C602.9999999999999 359.47999999999996 611.3299999999999 345 611.3299999999999 345C611.3299999999999 345 619.67 359.48 619.67 364.09 " fill="#ffffff" fill-opacity="1" transform="matrix(1,0,0,1,-568,-296)"></path><path id="SvgjsPath1012" d="M584.67 332.09C584.67 336.7 580.93 340.44 576.3299999999999 340.44C571.7299999999999 340.44 567.9999999999999 336.7 567.9999999999999 332.09C567.9999999999999 327.47999999999996 576.3299999999999 313 576.3299999999999 313C576.3299999999999 313 584.67 327.48 584.67 332.09 " fill="#ffffff" fill-opacity="1" transform="matrix(1,0,0,1,-568,-296)"></path><path id="SvgjsPath1013" d="M584.67 364.09C584.67 368.7 580.93 372.44 576.3299999999999 372.44C571.7299999999999 372.44 567.9999999999999 368.7 567.9999999999999 364.09C567.9999999999999 359.47999999999996 576.3299999999999 345 576.3299999999999 345C576.3299999999999 345 584.67 359.48 584.67 364.09 " fill="#ffffff" fill-opacity="1" transform="matrix(1,0,0,1,-568,-296)"></path><path id="SvgjsPath1014" d="M602.67 315.09C602.67 319.7 598.93 323.44 594.3299999999999 323.44C589.7299999999999 323.44 585.9999999999999 319.7 585.9999999999999 315.09C585.9999999999999 310.47999999999996 594.3299999999999 296 594.3299999999999 296C594.3299999999999 296 602.67 310.48 602.67 315.09 " fill="#ffffff" fill-opacity="1" transform="matrix(1,0,0,1,-568,-296)"></path><path id="SvgjsPath1015" d="M602.67 347.09C602.67 351.7 598.93 355.44 594.3299999999999 355.44C589.7299999999999 355.44 585.9999999999999 351.7 585.9999999999999 347.09C585.9999999999999 342.47999999999996 594.3299999999999 328 594.3299999999999 328C594.3299999999999 328 602.67 342.48 602.67 347.09 " fill="#ffffff" fill-opacity="1" transform="matrix(1,0,0,1,-568,-296)"></path></svg>