<svg id="SvgjsSvg1023" xmlns="http://www.w3.org/2000/svg" version="1.1" xmlns:xlink="http://www.w3.org/1999/xlink" xmlns:svgjs="http://svgjs.com/svgjs" width="96" height="49" viewBox="0 0 96 49"><title>Fill 1</title><desc>Created with Avocode.</desc><defs id="SvgjsDefs1024"></defs><path id="SvgjsPath1025" d="M273.81 2080.28C274.45 2078.96 274.48 2077.4300000000003 273.9 2076.0800000000004C273.32 2074.7300000000005 272.17999999999995 2073.7000000000003 270.78 2073.2500000000005L270.60999999999996 2073.1900000000005C270.60999999999996 2073.1900000000005 272.94999999999993 2072.7000000000007 273.98999999999995 2070.4300000000003C274.60999999999996 2069.09 274.65 2067.57 274.05999999999995 2066.2200000000003C273.05999999999995 2063.9300000000003 271.59999999999997 2061.9300000000003 269.71999999999997 2060.2700000000004C268.78999999999996 2059.4500000000003 267.59 2059.01 266.34999999999997 2059.0000000000005C266.34 2059.0000000000005 266.33 2059.0000000000005 266.32 2059.0000000000005C263.31 2059.0000000000005 262.01 2061.3900000000003 262.01 2061.3900000000003V2053.09C262.01 2050.28 259.76 2048.02 256.9 2048C256.89 2048 256.88 2048 256.87 2048C255.66 2048 253.43 2048.4 251.95000000000002 2048.8C250.45000000000002 2049.2000000000003 248.99 2049.73 247.61 2050.3900000000003C246.33 2051.0000000000005 245.35000000000002 2052.1200000000003 244.93 2053.4700000000003C244.51000000000002 2054.82 244.68 2056.3 245.39000000000001 2057.53L249.55 2064.7200000000003C249.55 2064.7200000000003 248.55 2064.1200000000003 247.16000000000003 2064.1200000000003C244.96000000000004 2064.1200000000003 243.01000000000002 2065.5200000000004 242.31000000000003 2067.59C242.26000000000002 2067.7400000000002 242.21000000000004 2067.8900000000003 242.17000000000004 2068.05C241.50000000000006 2067.4100000000003 240.70000000000005 2066.84 239.72000000000006 2066.38C238.39000000000004 2065.7400000000002 236.89000000000004 2065.4100000000003 235.40000000000006 2065.4100000000003C234.27000000000007 2065.4100000000003 233.15000000000006 2065.6000000000004 232.12000000000006 2065.9700000000003C231.35000000000005 2065.57 230.47000000000006 2065.3500000000004 229.55000000000007 2065.3500000000004C228.25000000000006 2065.3500000000004 227.05000000000007 2065.8 226.10000000000008 2066.5600000000004V2065.5600000000004C226.10000000000008 2062.5400000000004 223.64000000000007 2060.0800000000004 220.61000000000007 2060.0800000000004C217.58000000000007 2060.0800000000004 215.11000000000007 2062.5400000000004 215.11000000000007 2065.5600000000004V2068.5800000000004C213.04000000000008 2066.4200000000005 210.28000000000006 2065.53 207.78000000000006 2065.53C205.92000000000004 2065.53 203.43000000000006 2066.1400000000003 201.34000000000006 2067.8500000000004C200.64000000000007 2066.8800000000006 199.64000000000007 2066.1600000000003 198.47000000000006 2065.8C197.94000000000005 2065.63 197.39000000000004 2065.55 196.83000000000007 2065.55C194.38000000000008 2065.55 192.25000000000006 2067.11 191.53000000000006 2069.44L191.30000000000007 2070.2000000000003L190.54000000000008 2068.65C189.7800000000001 2067.01 187.85000000000008 2065.54 185.57000000000008 2065.53C184.7800000000001 2065.53 183.95000000000007 2065.71 183.1200000000001 2066.11C181.7800000000001 2066.75 180.79000000000008 2067.88 180.3000000000001 2069.28C179.8200000000001 2070.6800000000003 179.9200000000001 2072.1800000000003 180.5700000000001 2073.5L185.8300000000001 2084.24C184.2700000000001 2084.85 183.1100000000001 2086.1 182.6300000000001 2087.79C182.1600000000001 2089.42 182.46000000000012 2091.12 183.4400000000001 2092.44C184.21000000000012 2093.48 185.7200000000001 2094.7400000000002 188.5800000000001 2094.81C188.6800000000001 2094.81 188.7800000000001 2094.81 188.8900000000001 2094.81C192.8900000000001 2094.81 195.8200000000001 2092.84 196.9300000000001 2089.4C197.38000000000008 2087.9900000000002 197.91000000000008 2086.32 198.4500000000001 2084.6C198.5500000000001 2084.8199999999997 198.6500000000001 2085.0299999999997 198.7600000000001 2085.24C200.5000000000001 2088.52 203.6600000000001 2090.3199999999997 207.6800000000001 2090.3199999999997C211.47000000000008 2090.3199999999997 214.13000000000008 2089.0499999999997 215.7700000000001 2087.39C216.7000000000001 2089.1099999999997 218.5200000000001 2090.27 220.6100000000001 2090.27C221.9100000000001 2090.27 223.1100000000001 2089.82 224.0600000000001 2089.06V2090.06C224.0600000000001 2093.08 226.5200000000001 2095.54 229.5500000000001 2095.54C232.5400000000001 2095.54 234.97000000000008 2093.16 235.0500000000001 2090.2C235.0500000000001 2090.2 235.1400000000001 2090.21 235.2900000000001 2090.21C236.2400000000001 2090.21 239.7600000000001 2090.03 242.2000000000001 2087.44C242.4900000000001 2087.13 243.0100000000001 2086.6 243.5400000000001 2085.71C244.2100000000001 2086.08 244.9900000000001 2086.29 245.81000000000012 2086.29C246.4800000000001 2086.29 247.11000000000013 2086.15 247.6900000000001 2085.9C248.0000000000001 2086.3 248.3800000000001 2086.6600000000003 248.81000000000012 2086.9500000000003C250.8500000000001 2088.3500000000004 253.21000000000012 2089.3 255.64000000000013 2089.7000000000003C255.92000000000013 2089.7500000000005 256.2000000000001 2089.78 256.4900000000001 2089.78C259.2500000000001 2089.78 261.5000000000001 2087.6200000000003 261.59000000000015 2084.86L261.60000000000014 2084.69L261.6900000000001 2084.83C262.6300000000001 2086.33 264.2500000000001 2087.23 266.0300000000001 2087.23C267.2100000000001 2087.23 268.37000000000006 2086.81 269.2800000000001 2086.06C271.18000000000006 2084.5 272.7500000000001 2082.5 273.81000000000006 2080.2799999999997 " fill="#fefefe" fill-opacity="1" transform="matrix(1,0,0,1,-179,-2048)"></path><path id="SvgjsPath1026" d="M261.96 2085.1L261.85999999999996 2084.95V2085.12C261.75999999999993 2087.88 259.52 2090.04 256.74999999999994 2090.04C256.46999999999997 2090.04 256.17999999999995 2090.0099999999998 255.89999999999995 2089.97C253.46999999999994 2089.56 251.10999999999996 2088.6099999999997 249.06999999999994 2087.2099999999996C248.63999999999993 2086.9199999999996 248.25999999999993 2086.5599999999995 247.94999999999993 2086.1599999999994C247.36999999999992 2086.4099999999994 246.73999999999992 2086.5499999999993 246.06999999999994 2086.5499999999993C245.24999999999994 2086.5499999999993 244.47999999999993 2086.3399999999992 243.79999999999993 2085.9699999999993C243.26999999999992 2086.859999999999 242.74999999999991 2087.3899999999994 242.45999999999992 2087.6999999999994C240.02999999999992 2090.2899999999995 236.49999999999991 2090.4699999999993 235.54999999999993 2090.4699999999993C235.39999999999992 2090.4699999999993 235.30999999999992 2090.459999999999 235.30999999999992 2090.459999999999C235.2299999999999 2093.419999999999 232.79999999999993 2095.7999999999993 229.8199999999999 2095.7999999999993C226.77999999999992 2095.7999999999993 224.3199999999999 2093.3399999999992 224.3199999999999 2090.3199999999993V2089.3199999999993C223.36999999999992 2090.0799999999995 222.1699999999999 2090.5299999999993 220.86999999999992 2090.5299999999993C218.77999999999992 2090.5299999999993 216.95999999999992 2089.3699999999994 216.02999999999992 2087.649999999999C214.38999999999993 2089.309999999999 211.7299999999999 2090.579999999999 207.9399999999999 2090.579999999999C203.92999999999992 2090.579999999999 200.7599999999999 2088.779999999999 199.01999999999992 2085.499999999999C198.9099999999999 2085.289999999999 198.80999999999992 2085.079999999999 198.70999999999992 2084.859999999999C198.16999999999993 2086.579999999999 197.63999999999993 2088.249999999999 197.1899999999999 2089.6599999999994C196.0799999999999 2093.0999999999995 193.14999999999992 2095.0699999999993 189.14999999999992 2095.0699999999993C189.04999999999993 2095.0699999999993 188.9399999999999 2095.0699999999993 188.83999999999992 2095.0699999999993C185.98999999999992 2094.999999999999 184.4699999999999 2093.749999999999 183.69999999999993 2092.6999999999994C182.71999999999994 2091.379999999999 182.41999999999993 2089.6799999999994 182.88999999999993 2088.0499999999993C183.36999999999992 2086.359999999999 184.52999999999992 2085.109999999999 186.08999999999992 2084.499999999999L180.82999999999993 2073.7599999999993C180.17999999999992 2072.439999999999 180.07999999999993 2070.939999999999 180.56999999999994 2069.5399999999995C181.04999999999993 2068.1399999999994 182.04999999999993 2067.0099999999993 183.37999999999994 2066.3699999999994C184.21999999999994 2065.9699999999993 185.03999999999994 2065.7999999999993 185.82999999999993 2065.7999999999993C188.10999999999993 2065.7999999999993 190.04999999999993 2067.269999999999 190.79999999999993 2068.9099999999994L191.55999999999992 2070.4599999999996L191.7899999999999 2069.6999999999994C192.5199999999999 2067.3699999999994 194.64999999999992 2065.8099999999995 197.08999999999992 2065.8099999999995C197.64999999999992 2065.8099999999995 198.19999999999993 2065.8899999999994 198.73999999999992 2066.0599999999995C199.9099999999999 2066.4199999999996 200.89999999999992 2067.1399999999994 201.59999999999994 2068.1099999999997C203.68999999999994 2066.3999999999996 206.17999999999995 2065.7899999999995 208.04999999999993 2065.7899999999995C210.53999999999994 2065.7899999999995 213.29999999999993 2066.6799999999994 215.36999999999992 2068.8399999999997V2065.8199999999997C215.36999999999992 2062.7999999999997 217.83999999999992 2060.3399999999997 220.86999999999992 2060.3399999999997C223.89999999999992 2060.3399999999997 226.36999999999992 2062.7999999999997 226.36999999999992 2065.8199999999997V2066.8199999999997C227.30999999999992 2066.0599999999995 228.5099999999999 2065.6099999999997 229.8199999999999 2065.6099999999997C230.7399999999999 2065.6099999999997 231.6099999999999 2065.8299999999995 232.3799999999999 2066.24C233.4199999999999 2065.8599999999997 234.52999999999992 2065.6699999999996 235.6699999999999 2065.6699999999996C237.1599999999999 2065.6699999999996 238.6499999999999 2066.0099999999998 239.9799999999999 2066.6399999999994C240.9599999999999 2067.0999999999995 241.7599999999999 2067.6699999999996 242.4299999999999 2068.3099999999995C242.46999999999989 2068.1599999999994 242.5199999999999 2067.9999999999995 242.56999999999988 2067.8499999999995C243.26999999999987 2065.7799999999993 245.21999999999989 2064.3899999999994 247.41999999999987 2064.3899999999994C248.81999999999988 2064.3899999999994 249.81999999999988 2064.9799999999996 249.81999999999988 2064.9799999999996L245.6499999999999 2057.7899999999995C244.93999999999988 2056.5599999999995 244.7699999999999 2055.0799999999995 245.1999999999999 2053.7299999999996C245.6199999999999 2052.3799999999997 246.5899999999999 2051.2599999999998 247.8699999999999 2050.6499999999996C249.25999999999988 2049.99 250.71999999999989 2049.4599999999996 252.2099999999999 2049.0599999999995C253.68999999999988 2048.6599999999994 255.9199999999999 2048.2599999999993 257.1399999999999 2048.2599999999993C257.14999999999986 2048.2599999999993 257.15999999999985 2048.2599999999993 257.15999999999985 2048.2599999999993C260.01999999999987 2048.2799999999993 262.26999999999987 2050.5499999999993 262.26999999999987 2053.3499999999995V2061.6499999999996C262.26999999999987 2061.6499999999996 263.57999999999987 2059.2599999999998 266.57999999999987 2059.2599999999998C266.58999999999986 2059.2599999999998 266.59999999999985 2059.2599999999998 266.60999999999984 2059.2599999999998C267.84999999999985 2059.27 269.04999999999984 2059.7099999999996 269.97999999999985 2060.5299999999997C271.86999999999983 2062.1899999999996 273.32999999999987 2064.1899999999996 274.3199999999998 2066.4799999999996C274.9099999999998 2067.8299999999995 274.86999999999983 2069.3499999999995 274.2599999999998 2070.6899999999996C273.2099999999998 2072.9599999999996 270.8799999999998 2073.45 270.8799999999998 2073.45L271.03999999999985 2073.5099999999998C272.4399999999998 2073.9599999999996 273.57999999999987 2074.99 274.15999999999985 2076.3399999999997C274.73999999999984 2077.6899999999996 274.70999999999987 2079.22 274.07999999999987 2080.5399999999995C273.0099999999999 2082.7599999999993 271.4399999999999 2084.7599999999993 269.53999999999985 2086.3199999999997C268.6299999999998 2087.08 267.47999999999985 2087.49 266.28999999999985 2087.49C264.51999999999987 2087.49 262.89999999999986 2086.5899999999997 261.95999999999987 2085.1ZM274.49 2070.8C275.14 2069.38 275.17 2067.77 274.56 2066.38C273.55 2064.05 272.07 2062.02 270.16 2060.34C269.18 2059.48 267.92 2059.01 266.61 2059H266.58000000000004C264.48 2059 263.18000000000006 2060.1 262.53000000000003 2060.85V2053.35C262.53000000000003 2051.92 261.98 2050.58 260.97 2049.58C259.97 2048.5699999999997 258.61 2048.0099999999998 257.17 2048H257.14000000000004C255.90000000000003 2048 253.62000000000003 2048.41 252.14000000000004 2048.81C250.63000000000005 2049.21 249.16000000000005 2049.75 247.76000000000005 2050.41C246.41000000000005 2051.0499999999997 245.39000000000004 2052.23 244.95000000000005 2053.6499999999996C244.50000000000006 2055.0799999999995 244.68000000000004 2056.6299999999997 245.42000000000004 2057.9199999999996L249.19000000000005 2064.4199999999996C248.75000000000006 2064.2699999999995 248.13000000000005 2064.1199999999994 247.42000000000004 2064.1199999999994C245.11000000000004 2064.1199999999994 243.06000000000003 2065.5899999999992 242.33000000000004 2067.7699999999995C242.32000000000005 2067.7899999999995 242.31000000000003 2067.8199999999997 242.30000000000004 2067.8399999999997C241.65000000000003 2067.2699999999995 240.91000000000005 2066.7899999999995 240.09000000000003 2066.3999999999996C238.72000000000003 2065.7499999999995 237.19000000000003 2065.41 235.67000000000004 2065.41C234.54000000000005 2065.41 233.44000000000005 2065.5899999999997 232.40000000000003 2065.95C231.60000000000002 2065.5499999999997 230.71000000000004 2065.35 229.82000000000002 2065.35C228.68000000000004 2065.35 227.57000000000002 2065.68 226.63000000000002 2066.31V2065.82C226.63000000000002 2062.6600000000003 224.05 2060.0800000000004 220.87000000000003 2060.0800000000004C217.69000000000003 2060.0800000000004 215.11000000000004 2062.6600000000003 215.11000000000004 2065.82V2068.2200000000003C213.24000000000004 2066.5000000000005 210.70000000000005 2065.53 208.05000000000004 2065.53C206.96000000000004 2065.53 204.21000000000004 2065.75 201.65000000000003 2067.7400000000002C200.92000000000004 2066.82 199.95000000000005 2066.1600000000003 198.81000000000003 2065.8100000000004C198.26000000000002 2065.6400000000003 197.68000000000004 2065.55 197.09000000000003 2065.55C194.53000000000003 2065.55 192.30000000000004 2067.19 191.54000000000002 2069.63L191.50000000000003 2069.75L191.04000000000002 2068.8C190.32000000000002 2067.23 188.38000000000002 2065.54 185.83 2065.53C184.96 2065.53 184.10000000000002 2065.7400000000002 183.27 2066.1400000000003C181.87 2066.8 180.83 2067.9800000000005 180.32000000000002 2069.4600000000005C179.81000000000003 2070.9200000000005 179.91000000000003 2072.4900000000007 180.59000000000003 2073.8800000000006L185.73000000000002 2084.3700000000003C184.20000000000002 2085.05 183.11 2086.32 182.64000000000001 2087.9800000000005C182.15 2089.6900000000005 182.46 2091.4700000000003 183.49 2092.8600000000006C184.29000000000002 2093.9500000000007 185.87 2095.2600000000007 188.83 2095.3300000000004C188.94000000000003 2095.3300000000004 189.04000000000002 2095.3400000000006 189.15 2095.3400000000006C193.28 2095.3400000000006 196.3 2093.3000000000006 197.44 2089.7400000000007C197.81 2088.5900000000006 198.25 2087.1900000000005 198.76 2085.5700000000006C198.76999999999998 2085.5900000000006 198.78 2085.6100000000006 198.79 2085.6300000000006C200.57 2088.9900000000007 203.82 2090.8400000000006 207.94 2090.8400000000006C212.07 2090.8400000000006 214.56 2089.390000000001 215.97 2088.0700000000006C217.02 2089.7600000000007 218.87 2090.7900000000004 220.87 2090.7900000000004C222 2090.7900000000004 223.12 2090.4600000000005 224.06 2089.8300000000004V2090.32C224.06 2093.48 226.64000000000001 2096.06 229.82 2096.06C231.32999999999998 2096.06 232.75 2095.48 233.84 2094.42C234.85 2093.4300000000003 235.46 2092.13 235.56 2090.73C236.6 2090.73 240.17000000000002 2090.52 242.65 2087.88L242.69 2087.84C242.97 2087.54 243.42 2087.07 243.9 2086.31C244.57 2086.64 245.32 2086.81 246.07 2086.81C246.69 2086.81 247.29 2086.7 247.87 2086.47C248.18 2086.8399999999997 248.53 2087.16 248.92000000000002 2087.43C250.99 2088.8399999999997 253.39000000000001 2089.81 255.86 2090.22C256.15000000000003 2090.27 256.45 2090.2999999999997 256.75 2090.2999999999997C259.46 2090.2999999999997 261.7 2088.3199999999997 262.07 2085.7099999999996C263.08 2086.9999999999995 264.62 2087.7499999999995 266.29 2087.7499999999995C267.54 2087.7499999999995 268.75 2087.3199999999997 269.71000000000004 2086.5299999999997C271.64000000000004 2084.9399999999996 273.23 2082.91 274.31000000000006 2080.6499999999996C274.9800000000001 2079.2599999999998 275.01000000000005 2077.6499999999996 274.40000000000003 2076.24C273.87000000000006 2075 272.89000000000004 2074.0099999999998 271.66 2073.47C272.48 2073.1299999999997 273.77000000000004 2072.37 274.49 2070.7999999999997Z " fill="#cccccb" fill-opacity="1" transform="matrix(1,0,0,1,-179,-2048)"></path><path id="SvgjsPath1027" d="M222.88 2084.17C222.88 2085.2400000000002 222.01 2086.11 220.94 2086.11C219.87 2086.11 219 2085.2400000000002 219 2084.17V2064.9300000000003C219 2063.8700000000003 219.87 2063.0000000000005 220.94 2063.0000000000005C222.01 2063.0000000000005 222.88 2063.8700000000003 222.88 2064.9300000000003Z " fill="#000000" fill-opacity="1" transform="matrix(1,0,0,1,-179,-2048)"></path><path id="SvgjsPath1028" d="M208.2 2072.77C209.11999999999998 2072.77 211.14999999999998 2073.22 211.26 2075.93C211.26 2076.0699999999997 211.19 2076.16 211.1 2076.16H205.29C205.2 2076.16 205.12 2076.06 205.12 2075.8799999999997C205.25 2073.2099999999996 207.28 2072.7699999999995 208.20000000000002 2072.7699999999995ZM212.94 2079.35C212.99 2079.35 213.04 2079.3399999999997 213.09 2079.3399999999997C214.05 2079.2699999999995 214.97 2078.47 214.97 2077.1899999999996C214.97 2077.1799999999994 214.97 2077.1799999999994 214.97 2077.1799999999994C214.97 2077.149999999999 214.97 2077.109999999999 214.97 2077.0799999999995C214.62 2070.0199999999995 210.07 2068.9999999999995 208.01 2068.9999999999995C205.85999999999999 2068.9999999999995 201 2070.2599999999998 201 2078.1099999999997C201.04 2081.0599999999995 201.67 2086.7 207.9 2086.7C213.29 2086.7 214.49 2083.6099999999997 214.49 2082.8199999999997C214.49 2081.6499999999996 213.52 2080.66 212.42000000000002 2081.0399999999995C211.52 2081.3399999999997 210.3 2083.1099999999997 208.32000000000002 2083.1099999999997C205.50000000000003 2083.1099999999997 205.14000000000001 2080.5399999999995 205.14000000000001 2079.99C205.14000000000001 2079.54 205.37 2079.3599999999997 205.97000000000003 2079.3399999999997Z " fill="#000000" fill-opacity="1" transform="matrix(1,0,0,1,-179,-2048)"></path><path id="SvgjsPath1029" d="M190.27 2084.23L184.20000000000002 2071.86C183.72000000000003 2070.8700000000003 184.13000000000002 2069.6800000000003 185.12 2069.2000000000003C186.11 2068.7200000000003 187.3 2069.13 187.79 2070.1200000000003L192.48 2079.7000000000003L195.36999999999998 2070.4C195.68999999999997 2069.35 196.80999999999997 2068.76 197.85999999999999 2069.09C198.92 2069.4100000000003 199.49999999999997 2070.53 199.17999999999998 2071.57C199.17999999999998 2071.57 195.92999999999998 2082.15 193.98 2088.23C193.32999999999998 2090.2400000000002 191.64 2091.2400000000002 189.10999999999999 2091.18C186.6 2091.12 186.20999999999998 2089.64 186.48999999999998 2088.6699999999996C186.79 2087.5999999999995 187.68999999999997 2087.2799999999997 188.55999999999997 2087.2799999999997C190.82999999999998 2087.2999999999997 191.11999999999998 2085.93 190.26999999999998 2084.2299999999996 " fill="#000000" fill-opacity="1" transform="matrix(1,0,0,1,-179,-2048)"></path><path id="SvgjsPath1030" d="M245.86 2082.01H246.07000000000002C246.25000000000003 2082.01 246.41000000000003 2082 246.41000000000003 2081.8100000000004C246.41000000000003 2081.6400000000003 246.26000000000002 2081.6200000000003 246.13000000000002 2081.6200000000003H245.86ZM245.68 2081.46H246.14000000000001C246.44000000000003 2081.46 246.58 2081.57 246.58 2081.82C246.58 2082.04 246.44000000000003 2082.1400000000003 246.25 2082.1600000000003L246.61 2082.7100000000005H246.43L246.08 2082.1700000000005H245.86V2082.7100000000005H245.68ZM247 2082.07C247 2081.55 246.6 2081.1600000000003 246.09 2081.1600000000003C245.58 2081.1600000000003 245.17000000000002 2081.55 245.17000000000002 2082.0800000000004C245.17000000000002 2082.6000000000004 245.58 2082.9900000000002 246.09 2082.9900000000002C246.6 2082.9900000000002 247 2082.6000000000004 247 2082.07ZM247.18 2082.07C247.18 2082.69 246.68 2083.15 246.09 2083.15C245.5 2083.15 245 2082.69 245 2082.08C245 2081.46 245.5 2081 246.09 2081C246.68 2081 247.18 2081.46 247.18 2082.07Z " fill="#221e1f" fill-opacity="1" transform="matrix(1,0,0,1,-179,-2048)"></path><path id="SvgjsPath1031" d="M238.26 2078.69C238.26 2080.2200000000003 238.26 2082.96 235.48 2082.96C232.67999999999998 2082.96 232.69 2080.2200000000003 232.69 2078.69V2077.3C232.69 2075.77 232.69 2073.02 235.48 2073.02C238.26999999999998 2073.02 238.26 2075.77 238.26 2077.3ZM238.58 2069.69C236.76000000000002 2068.83 234.53 2068.85 232.81 2069.83C232.47 2070.0299999999997 232.13 2070.25 231.82 2070.48C231.62 2069.63 230.85 2069 229.94 2069C228.87 2069 228 2069.87 228 2070.93V2090.1699999999996C228 2091.24 228.87 2092.0999999999995 229.94 2092.0999999999995C231.01 2092.0999999999995 231.88 2091.2399999999993 231.88 2090.1699999999996V2085.1199999999994C231.88 2085.1199999999994 233.19 2086.7099999999996 235.26 2086.7699999999995C242.63 2086.9599999999996 242.14999999999998 2078.9699999999993 242.10999999999999 2077.2199999999993C242.10999999999999 2074.689999999999 241.79999999999998 2071.209999999999 238.57999999999998 2069.689999999999Z " fill="#000000" fill-opacity="1" transform="matrix(1,0,0,1,-179,-2048)"></path><path id="SvgjsPath1032" d="M247.85 2068.16L254.63 2071.45C255.93 2072.08 255.73 2073.99 254.32 2074.3399999999997L247.01 2076.16C246.1 2076.39 245.2 2075.7599999999998 245.09 2074.83C244.86 2072.84 245.09 2070.87 245.70000000000002 2069.0499999999997C246.00000000000003 2068.1699999999996 247.01000000000002 2067.7499999999995 247.85000000000002 2068.16 " fill="#d8272d" fill-opacity="1" transform="matrix(1,0,0,1,-179,-2048)"></path><path id="SvgjsPath1033" d="M250.4 2081.1L255.44 2075.52C256.41 2074.44 258.2 2075.16 258.15 2076.61L257.89 2084.11C257.84999999999997 2085.05 257 2085.7400000000002 256.08 2085.59C254.13 2085.26 252.27999999999997 2084.51 250.67 2083.4100000000003C249.89999999999998 2082.88 249.76999999999998 2081.7900000000004 250.39999999999998 2081.1000000000004 " fill="#d8272d" fill-opacity="1" transform="matrix(1,0,0,1,-179,-2048)"></path><path id="SvgjsPath1034" d="M263.04 2074.08L270.21000000000004 2076.4C271.1 2076.69 271.54 2077.7000000000003 271.13000000000005 2078.54C270.2900000000001 2080.29 269.07000000000005 2081.86 267.55000000000007 2083.12C266.82000000000005 2083.71 265.74000000000007 2083.54 265.24000000000007 2082.74L261.24000000000007 2076.37C260.4700000000001 2075.15 261.6600000000001 2073.63 263.0400000000001 2074.08 " fill="#d8272d" fill-opacity="1" transform="matrix(1,0,0,1,-179,-2048)"></path><path id="SvgjsPath1035" d="M270.23 2069.19L262.99 2071.26C261.59000000000003 2071.6600000000003 260.46000000000004 2070.11 261.27 2068.9100000000003L265.49 2062.6800000000003C266.01 2061.9100000000003 267.1 2061.7700000000004 267.8 2062.38C269.25 2063.6600000000003 270.43 2065.2400000000002 271.23 2067.08C271.6 2067.94 271.14000000000004 2068.93 270.23 2069.19 " fill="#d8272d" fill-opacity="1" transform="matrix(1,0,0,1,-179,-2048)"></path><path id="SvgjsPath1036" d="M253.61 2051.68C252.3 2052.02 251.06 2052.48 249.88000000000002 2053.04C249.06000000000003 2053.43 248.76000000000002 2054.43 249.21000000000004 2055.21L256.29 2067.43C257.09000000000003 2068.81 259.19 2068.24 259.19 2066.66V2052.5499999999997C259.19 2051.6499999999996 258.42 2050.93 257.52 2050.9999999999995C256.21999999999997 2051.1099999999997 254.90999999999997 2051.3299999999995 253.60999999999999 2051.6799999999994 " fill="#d8272d" fill-opacity="1" transform="matrix(1,0,0,1,-179,-2048)"></path></svg>